<?xml version="1.0" encoding="utf-8"?>
<!-- Generator: Adobe Illustrator 22.0.1, SVG Export Plug-In . SVG Version: 6.00 Build 0)  -->
<svg version="1.1" id="Layer_1" xmlns="http://www.w3.org/2000/svg" xmlns:xlink="http://www.w3.org/1999/xlink" x="0px" y="0px"
	 viewBox="0 0 32 32" style="enable-background:new 0 0 32 32;" xml:space="preserve">
<style type="text/css">
	.st0{fill:url(#Error_alert_1_);}
</style>
<linearGradient id="Error_alert_1_" gradientUnits="userSpaceOnUse" x1="4.5263" y1="27.1961" x2="27.1441" y2="4.5784">
	<stop  offset="0" style="stop-color:#EA0000"/>
	<stop  offset="1" style="stop-color:#FF2F36"/>
</linearGradient>
<path id="Error_alert" class="st0" d="M23.1,22.9c-0.4,0.4-1.1,0.4-1.5,0c0,0,0,0,0,0l-5.5-5.5l-5.5,5.5c-0.4,0.4-1.1,0.4-1.5,0
	c-0.4-0.4-0.4-1.1,0-1.5l0,0l5.5-5.5l-5.5-5.5c-0.4-0.4-0.4-1.1,0-1.5c0.4-0.4,1.1-0.4,1.5,0l5.5,5.5l5.5-5.5c0.4-0.4,1.1-0.4,1.5,0
	c0.4,0.4,0.4,1.1,0,1.5l-5.5,5.5l5.5,5.5C23.5,21.8,23.5,22.5,23.1,22.9C23.1,22.9,23.1,22.9,23.1,22.9z M29.7,24.3L29.7,24.3
	c-0.2,0.4-0.7,0.5-1,0.3c0,0-0.1,0-0.1,0c-0.4-0.2-0.5-0.7-0.3-1c0,0,0,0,0-0.1c4.2-6.8,2-15.8-4.8-20c-6.8-4.2-15.8-2-20,4.8
	s-2,15.8,4.8,20c4.4,2.7,9.9,2.8,14.5,0.4c0.4-0.2,0.9-0.1,1.1,0.3c0,0,0,0,0,0c0.2,0.4,0.1,0.9-0.3,1.2C16,34.3,6.2,31.5,2,23.8
	C-2.3,16,0.5,6.3,8.3,2S25.7,0.6,30,8.3C32.7,13.3,32.6,19.4,29.7,24.3L29.7,24.3z"/>
</svg>
