<?xml version="1.0" encoding="utf-8"?>
<!-- Generator: Adobe Illustrator 22.0.1, SVG Export Plug-In . SVG Version: 6.00 Build 0)  -->
<svg version="1.1" id="Layer_1" xmlns="http://www.w3.org/2000/svg" xmlns:xlink="http://www.w3.org/1999/xlink" x="0px" y="0px"
	 viewBox="0 0 28 34" style="enable-background:new 0 0 28 34;" xml:space="preserve">
<style type="text/css">
	.st0{fill:url(#Info_alert_1_);}
</style>
<linearGradient id="Info_alert_1_" gradientUnits="userSpaceOnUse" x1="25.1021" y1="5.2267" x2="2.9036" y2="27.4252">
	<stop  offset="0" style="stop-color:#DDDDDD"/>
	<stop  offset="1" style="stop-color:#999999"/>
</linearGradient>
<path id="Info_alert" class="st0" d="M21.9,25.5c-0.5,0.3-0.9,0.7-1.2,1.2v3.6c0,2-1.6,3.6-3.7,3.6H11c-2,0-3.6-1.6-3.7-3.6v-3.6
	c-0.3-0.5-0.7-0.9-1.2-1.2c-6.4-4.3-8.1-13-3.8-19.4C4.8,2.5,8.9,0.2,13.3,0c3.8-0.2,7.6,1.2,10.4,3.8c5.6,5.3,5.8,14.2,0.5,19.7
	C23.4,24.3,22.7,24.9,21.9,25.5z M10.4,32h7.2c0.8,0,1.5-0.7,1.4-1.5v-1.5H9v1.5C9,31.3,9.6,32,10.4,32L10.4,32z M22.3,5.2
	C20,3.1,17.1,2,14,2h-0.6C7.1,2.3,2.2,7.4,2,13.7c-0.1,4,1.9,7.7,5.2,9.9c1.1,0.7,2.3,2.1,2.3,3.4h8.8c0-1.2,1.3-2.6,2.3-3.3
	c5.4-3.6,6.9-11,3.2-16.4C23.5,6.5,22.9,5.8,22.3,5.2L22.3,5.2z M16.3,20.2c-0.3,0.2-0.5,0.4-0.7,0.5c-0.3,0.2-0.6,0.4-0.8,0.5
	c-0.4,0.2-0.7,0.3-1.1,0.4c-0.3,0.1-0.6,0.2-0.9,0.2c-0.4,0-0.8-0.1-1.1-0.4c-0.2-0.2-0.4-0.5-0.5-0.8C11,20.3,11,20,11,19.7
	c0-0.4,0-0.8,0.1-1.2l0.5-1.3l0.6-1.9c0.1-0.3,0.2-0.7,0.3-1.1c0-0.2,0-0.5,0.1-0.7c0.2-0.2,0.3-0.4,0.6-0.6
	c0.2-0.2,0.4-0.3,0.6-0.4c0.1-0.1,0.3-0.1,0.4-0.2c0.2-0.1,0.4-0.1,0.6-0.1c0.3,0,0.6,0.2,0.7,0.4c0.1,0.4,0,0.9-0.4,1.1
	c-0.2,0.2-0.3,0.4-0.4,0.6c-0.2,0.3-0.3,0.6-0.4,0.9c-0.2,0.4-0.3,0.9-0.5,1.3c-0.1,0.4-0.3,0.9-0.4,1.4c-0.1,0.4-0.2,0.8-0.3,1.3
	c0,0.2,0,0.3,0.1,0.5c0.1,0.1,0.2,0.1,0.3,0.1c0.2,0,0.3,0,0.5,0c0.2,0,0.5-0.1,0.7-0.2c0.2-0.1,0.4-0.2,0.6-0.3l0.7-0.5
	c0.2-0.1,0.4-0.2,0.7-0.2h0.1l0.2,0.1l0.1,0.1c0.1,0.2,0.1,0.5,0,0.8C16.8,19.7,16.6,20,16.3,20.2L16.3,20.2z M14.8,10.1
	c-0.3,0.3-0.7,0.5-1.1,0.5c-0.2,0-0.4-0.1-0.6-0.2c-0.2-0.2-0.3-0.4-0.4-0.6c-0.1-0.2-0.1-0.4-0.1-0.6c0-0.2,0.1-0.3,0.1-0.5
	c0.2-0.3,0.3-0.6,0.6-0.9c0.2-0.3,0.6-0.5,1-0.5c0.2,0,0.4,0.1,0.5,0.2c0.2,0.2,0.4,0.5,0.5,0.8c0.1,0.3,0.2,0.6,0.2,1
	C15.4,9.6,15.2,10,14.8,10.1L14.8,10.1z"/>
</svg>
