<?xml version="1.0" encoding="utf-8"?>
<!-- Generator: Adobe Illustrator 22.0.1, SVG Export Plug-In . SVG Version: 6.00 Build 0)  -->
<svg version="1.1" id="Layer_1" xmlns="http://www.w3.org/2000/svg" xmlns:xlink="http://www.w3.org/1999/xlink" x="0px" y="0px"
	 viewBox="0 0 32 32" style="enable-background:new 0 0 32 32;" xml:space="preserve">
<style type="text/css">
	.st0{fill:url(#Success_alert_1_);}
</style>
<linearGradient id="Success_alert_1_" gradientUnits="userSpaceOnUse" x1="27.3089" y1="4.6606" x2="5.007" y2="26.9625">
	<stop  offset="1.241987e-03" style="stop-color:#AAE57E"/>
	<stop  offset="1" style="stop-color:#5CC23D"/>
</linearGradient>
<path id="Success_alert" class="st0" d="M24,29.8c-5,2.9-11.2,2.9-16.2-0.1l0,0l0,0c-0.4-0.2-0.5-0.7-0.3-1.1
	c0.2-0.4,0.7-0.5,1.1-0.3c0,0,0,0,0,0l0,0l0,0c6.8,4.1,15.6,1.9,19.7-4.9s1.9-15.6-4.9-19.7C16.6-0.4,7.8,1.8,3.7,8.6
	C1.1,12.9,1,18.4,3.4,22.9l0,0l0,0c0.2,0.4,0.1,0.9-0.3,1.1c-0.4,0.2-0.9,0.1-1.1-0.3c0,0,0,0,0,0c0,0,0,0,0,0
	C-2.3,16,0.5,6.2,8.3,2S25.7,0.5,30,8.2C34.2,15.9,31.5,25.5,24,29.8z M8,14.7l5.5,5.5L24,9.6c0.4-0.4,1.1-0.4,1.6,0
	c0.4,0.4,0.4,1.1,0,1.6L14.2,22.5c-0.4,0.4-1.1,0.4-1.6,0c0,0,0,0,0,0l-6.2-6.2c-0.4-0.4-0.5-1.1,0-1.6C6.8,14.2,7.5,14.2,8,14.7
	C8,14.7,8,14.7,8,14.7L8,14.7z"/>
</svg>
