<?xml version="1.0" encoding="utf-8"?>
<!-- Generator: Adobe Illustrator 22.0.1, SVG Export Plug-In . SVG Version: 6.00 Build 0)  -->
<svg version="1.1" id="Layer_1" xmlns="http://www.w3.org/2000/svg" xmlns:xlink="http://www.w3.org/1999/xlink" x="0px" y="0px"
	 viewBox="0 0 120.8 135.8" style="enable-background:new 0 0 120.8 135.8;" xml:space="preserve">
<style type="text/css">
	.st0{opacity:0.12;fill:url(#SVGID_1_);}
</style>
<linearGradient id="SVGID_1_" gradientUnits="userSpaceOnUse" x1="103.7362" y1="117.7505" x2="4.1433" y2="18.1576">
	<stop  offset="0" style="stop-color:#232323"/>
	<stop  offset="1" style="stop-color:#BBBBBB"/>
</linearGradient>
<path class="st0" d="M107.7,52.1c4.7-6.3-8.3-5.4-8.3-5.4s-0.5-5-4.7-4.6c-3-3.2-4,4.2-1.1,5.3s2.8,3,5.5,4.4s3-1.6,3-1.6
	c0.5,0.7,0.7,1.5,0.6,2.3c-0.3,4-4.7,5.2-8.7,2.3s-11-8.3-13.3-8.2s-6.5-1.2-5.7-5.2S62.6,43,62.6,43s2.7-1.4,0.1-5.9
	s-13.9,2-13.9,2l0,0c-20.5,5.8-32.4,26.9-26.9,47.5c5.8,20.9,27.6,33.3,48.9,27.8c26-6.8,28.4-21.8,27.1-26.7
	c-0.2-0.6-0.9-1-1.5-0.9l-1.2,0.3l0,0l-23,6c-1.7,0.4-3.5,0.2-5-0.6l-0.1,0c-1.3-0.3-2.5-1-3.4-2l-7-4.9c-0.9-1-1.5-2.1-1.9-3.3
	c-0.5-2,0.7-4,2.6-4.5c0,0,0,0,0.1,0L99,66.9l0.8-0.2l8.7-2.3l0,0c0.1,0,0.3-0.1,0.4-0.1c4.8-1.3,9.7,1.3,11.4,6
	c0.1,0.2,0.1,0.4,0.2,0.6c0.4,1.4,0.4,3,0.1,4.4c0.4,27.4-17.9,51.5-44.4,58.4C44,142.2,10.8,123.3,2.1,91.7
	c-6.8-24.8,3.4-51.1,25.2-64.8c-2.5-1-5.2-1.6-7.8-1.8c4.8-2.4,10.2-3.2,15.5-2.4c0,0-6.2-5.4-26.3-9c30.7-6.4,52.9,3.8,52.9,3.8
	S59.1,8.6,48.2,0c12.3,1.6,23.5,8,31.2,17.7c0,0,11.8-2.8,15,5.3c-4.2-3.6-8.2-1.9-7.5,3.6s-1.8,5.9-3.7,5.1s-6.8-0.7-4.4-0.5
	s4.1,3.2,6.9,6.5s4.7-1,4.9-3.8c0.1-1.7-0.4-3.3-1.3-4.7c3.1,1.6,6,3.7,8.5,6.1c2.5,2.4,5.4,4.5,8.5,6.1c0,0-3.4-2.2,5.6,1.9
	S112.6,51.9,107.7,52.1z"/>
</svg>
