<?xml version="1.0" encoding="utf-8"?>
<!-- Generator: Adobe Illustrator 22.0.1, SVG Export Plug-In . SVG Version: 6.00 Build 0)  -->
<svg version="1.1" id="Layer_1" xmlns="http://www.w3.org/2000/svg" xmlns:xlink="http://www.w3.org/1999/xlink" x="0px" y="0px"
	 viewBox="0 0 32 31.5" style="enable-background:new 0 0 32 31.5;" xml:space="preserve">
<style type="text/css">
	.st0{fill:url(#Warning_alert_1_);}
</style>
<linearGradient id="Warning_alert_1_" gradientUnits="userSpaceOnUse" x1="27.2734" y1="4.6845" x2="4.6573" y2="27.3006">
	<stop  offset="0" style="stop-color:#FFA200"/>
	<stop  offset="1" style="stop-color:#ED6D00"/>
</linearGradient>
<path id="Warning_alert" class="st0" d="M16,8c1-0.1,1.9,0.7,2,1.8l-1,8c0,1,0.1,1.8-1,1.8s-1-0.8-1-1.8l-1-8C14.1,8.7,15,7.9,16,8
	L16,8z M16,21c1.1,0,2,0.9,2,2s-0.9,2-2,2c-1.1,0-2-0.9-2-2C14,21.9,14.9,21,16,21L16,21z M19.9,31.5L19.9,31.5
	c-0.4,0.1-0.8-0.1-1-0.5c0,0,0-0.1,0-0.1c-0.1-0.4,0.1-0.8,0.5-1c0,0,0,0,0.1,0c7.8-1.9,12.6-9.7,10.7-17.5
	C28.3,4.6,20.5-0.2,12.7,1.7C4.9,3.6,0.1,11.4,2,19.2c1.2,5,5,9,10,10.5c0.4,0.1,0.7,0.5,0.6,1c0,0,0,0,0,0c-0.1,0.4-0.6,0.7-1,0.6
	C3,28.9-1.8,20,0.6,11.5C3.1,3.1,11.9-1.8,20.4,0.6C28.9,3.1,33.8,12,31.3,20.4C29.7,25.9,25.4,30.1,19.9,31.5L19.9,31.5z"/>
</svg>
