<svg id="组件_6_1" data-name="组件 6 – 1" xmlns="http://www.w3.org/2000/svg" width="18.697" height="17.206" viewBox="0 0 18.697 17.206">
  <defs>
    <style>
      .cls-1 {
        fill: #d5001c;
      }
    </style>
  </defs>
  <g id="组_46" data-name="组 46" transform="translate(2.687)">
    <path id="路径_23" data-name="路径 23" class="cls-1" d="M1077.213-21.392a5.033,5.033,0,0,0-3.583-1.484,5.034,5.034,0,0,0-3.583,1.484,5.034,5.034,0,0,0-1.484,3.583,5.034,5.034,0,0,0,1.484,3.583,5.034,5.034,0,0,0,3.583,1.484h0a5.033,5.033,0,0,0,3.583-1.484,5.033,5.033,0,0,0,1.484-3.583A5.033,5.033,0,0,0,1077.213-21.392Zm-3.583,7.143a3.564,3.564,0,0,1-3.561-3.56,3.564,3.564,0,0,1,3.561-3.56,3.564,3.564,0,0,1,3.56,3.56A3.564,3.564,0,0,1,1073.631-14.249Z" transform="translate(-1068.564 22.876)"/>
  </g>
  <path id="路径_24" data-name="路径 24" class="cls-1" d="M966.161,426.975a7.978,7.978,0,0,0-14.405,2.4.753.753,0,0,0,1.46.371,6.472,6.472,0,0,1,12.541,0,.753.753,0,0,0,1.46-.371,7.924,7.924,0,0,0-1.055-2.4Z" transform="translate(-951.733 -413.103)"/>
  <g id="组_47" data-name="组 47" transform="translate(15.749 7.08)">
    <path id="路径_25" data-name="路径 25" class="cls-1" d="M1636.97,289.935a.46.46,0,0,1-.46-.46v-4.057a.46.46,0,0,1,.92,0v4.057A.46.46,0,0,1,1636.97,289.935Z" transform="translate(-1636.51 -284.958)"/>
  </g>
  <g id="组_48" data-name="组 48" transform="translate(13.72 9.108)">
    <path id="路径_26" data-name="路径 26" class="cls-1" d="M1552.815,374.089h-4.057a.46.46,0,0,1,0-.92h4.057a.46.46,0,0,1,0,.92Z" transform="translate(-1548.298 -373.169)"/>
  </g>
</svg>
