<svg id="组_49" data-name="组 49" xmlns="http://www.w3.org/2000/svg" width="18.698" height="17.207" viewBox="0 0 18.698 17.207">
  <defs>
    <style>
      .cls-1 {
        fill: #333;
      }
    </style>
  </defs>
  <g id="组_46" data-name="组 46" transform="translate(-349 -986)">
    <path id="路径_23" data-name="路径 23" class="cls-1" d="M356.754,996.134a5.067,5.067,0,1,1,3.582-1.484,5.04,5.04,0,0,1-3.582,1.484Zm0-8.624a3.56,3.56,0,1,0,3.559,3.56A3.564,3.564,0,0,0,356.75,987.51Z"/>
  </g>
  <path id="路径_24" data-name="路径 24" class="cls-1" d="M363.429,999.872a7.978,7.978,0,0,0-14.405,2.4.753.753,0,1,0,1.46.371,6.472,6.472,0,0,1,12.541,0,.753.753,0,1,0,1.46-.371,7.922,7.922,0,0,0-1.055-2.4Z" transform="translate(-349 -986)"/>
  <g id="组_47" data-name="组 47" transform="translate(-349 -986)">
    <path id="路径_25" data-name="路径 25" class="cls-1" d="M365.209,998.057a.46.46,0,0,1-.46-.46V993.54a.46.46,0,0,1,.92,0V997.6A.46.46,0,0,1,365.209,998.057Z"/>
  </g>
  <g id="组_48" data-name="组 48" transform="translate(-349 -986)">
    <path id="路径_26" data-name="路径 26" class="cls-1" d="M367.237,996.028H363.18a.46.46,0,0,1,0-.92h4.057a.46.46,0,1,1,0,.92Z"/>
  </g>
</svg>
