<svg id="组_39" data-name="组 39" xmlns="http://www.w3.org/2000/svg" xmlns:xlink="http://www.w3.org/1999/xlink" width="17.03" height="17.03" viewBox="0 0 17.03 17.03">
  <defs>
    <style>
      .cls-1 {
        fill: #d5001c;
      }

      .cls-2 {
        clip-path: url(#clip-path);
      }
    </style>
    <clipPath id="clip-path">
      <rect id="vectorMask" class="cls-1" width="17.03" height="17.03" transform="translate(182 986)"/>
    </clipPath>
  </defs>
  <g id="组_4" data-name="组 4" transform="translate(-182 -986)">
    <g id="组_3" data-name="组 3" class="cls-2">
      <g id="组_3-2" data-name="组 3">
        <path id="路径_8" data-name="路径 8" class="cls-1" d="M189.531,1001.024a7.589,7.589,0,0,1-2.428-.4,7.532,7.532,0,1,1,7.74-1.8.508.508,0,0,1-.719-.718,6.516,6.516,0,1,0-3.858,1.861,6.593,6.593,0,0,0,1.084-.219.507.507,0,1,1,.284.973,7.318,7.318,0,0,1-1.253.251,6.975,6.975,0,0,1-.851.051Z"/>
        <path id="路径_9" data-name="路径 9" class="cls-1" d="M198.522,1003a.506.506,0,0,1-.359-.148l-4.037-4.031a.508.508,0,1,1,.719-.718l4.037,4.031a.507.507,0,0,1-.36.866Z"/>
      </g>
    </g>
  </g>
</svg>
