<svg id="组件_3_1" data-name="组件 3 – 1" xmlns="http://www.w3.org/2000/svg" width="14.602" height="17.644" viewBox="0 0 14.602 17.644">
  <defs>
    <style>
      .cls-1 {
        fill: #d5001c;
      }
    </style>
  </defs>
  <path id="路径_27" data-name="路径 27" class="cls-1" d="M1896.09,4.787A1.216,1.216,0,0,0,1894.872,6V20a1.216,1.216,0,0,0,1.218,1.214h12.165A1.216,1.216,0,0,0,1909.474,20V6a1.216,1.216,0,0,0-1.218-1.214h-1.824l.608.608V4.482a.913.913,0,0,0-.912-.912h-7.912a.91.91,0,0,0-.912.912V5.4l.609-.608ZM1898.522,6V4.482a.306.306,0,0,1-.305.305h7.912a.3.3,0,0,1-.305-.305V6h2.432s0,14,0,14-12.167,0-12.167,0,0-14,0-14,1.825,0,1.825,0Zm7.3.305a.306.306,0,0,1,.305-.305h-7.912a.3.3,0,0,1,.305.305V5.4a.608.608,0,1,0-1.217,0v.914a.913.913,0,0,0,.912.912h7.912a.91.91,0,0,0,.912-.912V5.4a.608.608,0,1,0-1.217,0Zm0,4.866a.608.608,0,0,0,0-1.217h-7.3a.608.608,0,0,0,0,1.217Zm-7.3,1.825a.608.608,0,0,0,0,1.217h7.3a.608.608,0,0,0,0-1.217Zm0,3.042a.608.608,0,0,0,0,1.217h4.867a.608.608,0,1,0,0-1.217Zm0,0" transform="translate(-1894.872 -3.57)"/>
</svg>
