<svg xmlns="http://www.w3.org/2000/svg" width="12.4" height="12.399" viewBox="0 0 12.4 12.399">
  <defs>
    <style>
      .cls-1 {
        fill: #333;
        stroke: #333;
        stroke-linecap: round;
        stroke-linejoin: round;
        stroke-width: 0.4px;
      }
    </style>
  </defs>
  <g id="组件_1_1" data-name="组件 1 – 1" transform="translate(0.2 0.2)">
    <path id="路径_25" data-name="路径 25" class="cls-1" d="M-188.776-248.582a2.42,2.42,0,0,0-.511-.283,2.119,2.119,0,0,0-.619-.108,2.852,2.852,0,0,0-.726.108,5.234,5.234,0,0,0-.565.336,3.139,3.139,0,0,0-.39.619,2.947,2.947,0,0,0-.108.726v.054h.619v-.054a1.531,1.531,0,0,1,.054-.5.756.756,0,0,1,.229-.39,1.564,1.564,0,0,1,.336-.283,1.746,1.746,0,0,1,.5-.108.979.979,0,0,1,.39.054c.108.054.229.108.336.175a.6.6,0,0,1,.229.283.857.857,0,0,1,.054.39,1.83,1.83,0,0,1-.108.511,2.01,2.01,0,0,1-.336.39l-.39.39a1.043,1.043,0,0,0-.282.39c-.054.108-.108.283-.175.444a1.834,1.834,0,0,0-.054.565v.054h.619v-.067a1.342,1.342,0,0,1,.054-.511,2.689,2.689,0,0,1,.054-.282,2.588,2.588,0,0,1,.175-.229,2.516,2.516,0,0,1,.39-.336c.175-.175.336-.39.5-.565a1.608,1.608,0,0,0,.175-.726,2.118,2.118,0,0,0-.108-.619.847.847,0,0,0-.336-.43Zm-1.56,5.543h.78v-.9h-.78Zm.336-9.188a6.005,6.005,0,0,0-6,6,6.005,6.005,0,0,0,6,6,6.005,6.005,0,0,0,6-6,5.937,5.937,0,0,0-6-6Zm0,11.488a5.506,5.506,0,0,1-5.5-5.488,5.506,5.506,0,0,1,5.5-5.488,5.494,5.494,0,0,1,5.488,5.488A5.494,5.494,0,0,1-190-240.74Zm0,0" transform="translate(196 252.228)"/>
  </g>
</svg>
