<svg id="路径_27" data-name="路径 27" xmlns="http://www.w3.org/2000/svg" width="14.602" height="17.645" viewBox="0 0 14.602 17.645">
  <defs>
    <style>
      .cls-1 {
        fill: #333;
      }
    </style>
  </defs>
  <path id="路径_27-2" data-name="路径 27" class="cls-1" d="M528.384,1003.644H516.218A1.218,1.218,0,0,1,515,1002.43v-14a1.217,1.217,0,0,1,1.219-1.213h1.215v-.305a.913.913,0,0,1,.912-.913h7.912a.913.913,0,0,1,.912.913v.305h1.215a1.217,1.217,0,0,1,1.219,1.213v14A1.218,1.218,0,0,1,528.384,1003.644Zm-9.131-1.216c3.6,0,9.115,0,9.133,0,0-.015,0-4.9,0-7,0-6.652,0-6.993,0-7h-1.214v.305a.913.913,0,0,1-.912.912h-7.912a.913.913,0,0,1-.912-.912v-.306h9.735v-.608a.608.608,0,0,0-1.217,0v-.6h.305a.306.306,0,0,1-.305-.305v.305h-7.3v.6a.608.608,0,0,0-1.217.005v.608c-.836,0-1.21,0-1.217,0h0c0,13.985,0,13.992,0,14Zm4.258-2.737h-4.86a.61.61,0,0,1,0-1.22h4.86a.61.61,0,1,1,0,1.22Zm2.44-3.04h-7.3a.61.61,0,0,1,0-1.22h7.3a.61.61,0,0,1,0,1.22Zm0-3.045h-7.3a.608.608,0,0,1,0-1.217h7.3a.608.608,0,0,1,0,1.217Z" transform="translate(-515 -986)"/>
</svg>
