<svg xmlns="http://www.w3.org/2000/svg" width="16.333" height="15.993" viewBox="0 0 16.333 15.993">
  <defs>
    <style>
      .cls-1 {
        fill: #717175;
        fill-rule: evenodd;
      }
    </style>
  </defs>
  <path id="密码" class="cls-1" d="M3391,2125.347h12.333a2,2,0,0,1,2,2v7.667a2,2,0,0,1-2,2H3391a2,2,0,0,1-2-2v-7.667A2,2,0,0,1,3391,2125.347Zm.667,1.667h11a1,1,0,0,1,1,1v6.333a1,1,0,0,1-1,1h-11a1,1,0,0,1-1-1v-6.333A1,1,0,0,1,3391.667,2127.014Zm5.5,1.667a.833.833,0,0,1,.833.833v3a.833.833,0,1,1-1.667,0v-3A.834.834,0,0,1,3397.167,2128.68Zm3.124-3.333a3.162,3.162,0,0,0-6.247,0h-1.684a4.833,4.833,0,0,1,9.613,0Z" transform="translate(-3389 -2121.021)"/>
</svg>
