<svg xmlns="http://www.w3.org/2000/svg" width="17.164" height="18.134" viewBox="0 0 17.164 18.134">
  <defs>
    <style>
      .cls-1 {
        fill: #717175;
      }
    </style>
  </defs>
  <g id="用户名" transform="translate(77 -1555.101)">
    <path id="路径_23" data-name="路径 23" class="cls-1" d="M5.608,11.216A5.607,5.607,0,0,1,1.643,1.643a5.608,5.608,0,0,1,7.931,7.93A5.571,5.571,0,0,1,5.608,11.216Zm0-9.548A3.944,3.944,0,1,0,9.551,5.612,3.949,3.949,0,0,0,5.607,1.667Z" transform="translate(-74.026 1555.101)"/>
    <path id="路径_24" data-name="路径 24" class="cls-1" d="M192.97,756.465a8.83,8.83,0,0,0-15.944,2.651.833.833,0,0,0,1.615.411,7.163,7.163,0,0,1,13.881,0,.834.834,0,0,0,.807.628.824.824,0,0,0,.206-.026.834.834,0,0,0,.6-1.013,8.772,8.772,0,0,0-1.168-2.651Z" transform="translate(-254 813.08)"/>
  </g>
</svg>
